name C:\Users\u0101727\Documents\MyRepositories\upper-imu-dc\Results\main_tracking\Case_20\kinematics.mot
datacolumns 10
datarows 52
range 3.45000000 3.96000000
endheader 
time	clav_prot	clav_elev	scapula_abduction	scapula_elevation	scapula_upward_rot	scapula_winging	plane_elv	shoulder_elv	axial_rot	
          3.45000000	        -59.30399950	         13.72384843	        -15.76943567	          2.27571457	         96.86777116	        -22.62124070	         48.62390322	         78.78968388	         -8.93349324	
          3.46000000	        -59.35625187	         13.76305809	        -15.80993120	          2.31275077	         96.95099222	        -22.66145900	         48.70618906	         78.66888755	         -8.76386770	
          3.47000000	        -59.41644072	         13.81044186	        -15.86409882	          2.35493159	         97.03582730	        -22.71092940	         48.79757010	         78.53793336	         -8.58160450	
          3.48000000	        -59.47727571	         13.86171254	        -15.92042862	          2.39962507	         97.12066789	        -22.76179391	         48.88882898	         78.40116438	         -8.40205791	
          3.49000000	        -59.53321820	         13.91329170	        -15.97031383	          2.44455552	         97.20391913	        -22.80809321	         48.97320120	         78.26228738	         -8.23441349	
          3.50000000	        -59.58039607	         13.96229438	        -16.00781178	          2.48782824	         97.28416231	        -22.84564938	         49.04615067	         78.12428307	         -8.08287810	
          3.51000000	        -59.61619073	         14.00638414	        -16.02890091	          2.52787845	         97.36025234	        -22.87160392	         49.10472599	         77.98950856	         -7.94874611	
          3.52000000	        -59.63887407	         14.04367274	        -16.03085967	          2.56343736	         97.43136640	        -22.88402319	         49.14700567	         77.85980942	         -7.83212623	
          3.53000000	        -59.64749316	         14.07272892	        -16.01207347	          2.59355006	         97.49703259	        -22.88177876	         49.17190180	         77.73653198	         -7.73275319	
          3.54000000	        -59.64196399	         14.09264658	        -15.97218467	          2.61761894	         97.55715738	        -22.86465052	         49.17927293	         77.62044131	         -7.65004134	
          3.55000000	        -59.62318746	         14.10307494	        -15.91227166	          2.63541914	         97.61204624	        -22.83344425	         49.17009362	         77.51163617	         -7.58293308	
          3.56000000	        -59.59300739	         14.10415233	        -15.83477999	          2.64705436	         97.66238761	        -22.78993526	         49.14643366	         77.40956618	         -7.52997582	
          3.57000000	        -59.55394643	         14.09636567	        -15.74312895	          2.65286581	         97.70917029	        -22.73658495	         49.11115068	         77.31319979	         -7.48970192	
          3.58000000	        -59.50878346	         14.08039282	        -15.64110928	          2.65332754	         97.75353045	        -22.67610953	         49.06737687	         77.22131421	         -7.46109944	
          3.59000000	        -59.46010311	         14.05697959	        -15.53226936	          2.64895931	         97.79655814	        -22.61103940	         49.01797216	         77.13282244	         -7.44390408	
          3.60000000	        -59.40994181	         14.02687205	        -15.41945498	          2.64027259	         97.83911798	        -22.54338817	         48.96510265	         77.04703638	         -7.43860251	
          3.61000000	        -59.35961057	         13.99080148	        -15.30459186	          2.62775323	         97.88174194	        -22.47449760	         48.91003543	         76.96378250	         -7.44621793	
          3.62000000	        -59.30973349	         13.94952085	        -15.18875273	          2.61188327	         97.92462754	        -22.40508829	         48.85318954	         76.88332704	         -7.46795295	
          3.63000000	        -59.26050137	         13.90389614	        -15.07251755	          2.59320182	         97.96772990	        -22.33551660	         48.79444906	         76.80612851	         -7.50465005	
          3.64000000	        -59.21208233	         13.85504069	        -14.95656050	          2.57239298	         98.01090558	        -22.26618536	         48.73368116	         76.73248975	         -7.55605044	
          3.65000000	        -59.16507159	         13.80445002	        -14.84229677	          2.55037260	         98.05406287	        -22.19799097	         48.67131939	         76.66220786	         -7.62001399	
          3.66000000	        -59.12084069	         13.75407397	        -14.73237731	          2.52833436	         98.09727911	        -22.13266251	         48.60884044	         76.59432046	         -7.69197459	
          3.67000000	        -59.08167309	         13.70627089	        -14.63086015	          2.50772008	         98.14084977	        -22.07287736	         48.54900244	         76.52702730	         -7.76484353	
          3.68000000	        -59.05061990	         13.66361663	        -14.54296014	          2.49009660	         98.18524593	        -22.02208846	         48.49576779	         76.45783108	         -7.82947765	
          3.69000000	        -59.03105366	         13.62857352	        -14.47434177	          2.47694401	         98.23098002	        -21.98404386	         48.45386955	         76.38389827	         -7.87579545	
          3.70000000	        -59.02595717	         13.60306054	        -14.43000192	          2.46938646	         98.27841477	        -21.96203617	         48.42802623	         76.30258297	         -7.89458407	
          3.71000000	        -59.03709502	         13.58802059	        -14.41296187	          2.46792967	         98.32757717	        -21.95803270	         48.42193948	         76.21198858	         -7.87975938	
          3.72000000	        -59.06434199	         13.58313944	        -14.42321320	          2.47229729	         98.37802750	        -21.97197703	         48.43740303	         76.11140471	         -7.83030468	
          3.73000000	        -59.10545189	         13.58686746	        -14.45739249	          2.48144987	         98.42880640	        -22.00156782	         48.47389710	         76.00148085	         -7.75094268	
          3.74000000	        -59.15638995	         13.59679782	        -14.50938028	          2.49381759	         98.47848296	        -22.04264450	         48.52883293	         75.88406290	         -7.65115778	
          3.75000000	        -59.21212571	         13.61031629	        -14.57163230	          2.50770016	         98.52531190	        -22.09006224	         48.59832734	         75.76172525	         -7.54291795	
          3.76000000	        -59.26762219	         13.62532669	        -14.63682129	          2.52170871	         98.56741843	        -22.13877922	         48.67824635	         75.63719166	         -7.43783283	
          3.77000000	        -59.31875256	         13.64084898	        -14.69930953	          2.53513572	         98.60301090	        -22.18484887	         48.76520031	         75.51275815	         -7.34453782	
          3.78000000	        -59.36291954	         13.65731749	        -14.75608632	          2.54814456	         98.63056569	        -22.22606815	         48.85725284	         75.38987821	         -7.26698215	
          3.79000000	        -59.39923577	         13.67649517	        -14.80696123	          2.56172237	         98.64892952	        -22.26212963	         48.95418829	         75.26902980	         -7.20397179	
          3.80000000	        -59.42825030	         13.70103735	        -14.85400926	          2.57741575	         98.65732662	        -22.29426520	         49.05729053	         75.14988120	         -7.15001911	
          3.81000000	        -59.45132342	         13.73383458	        -14.90045764	          2.59692896	         98.65528300	        -22.32450392	         49.16871115	         75.03168859	         -7.09723538	
          3.82000000	        -59.46984885	         13.77731438	        -14.94935549	          2.62169484	         98.64249929	        -22.35477445	         49.29062960	         74.91379594	         -7.03771845	
          3.83000000	        -59.48455211	         13.83286982	        -15.00240181	          2.65252245	         98.61871761	        -22.38611002	         49.42446565	         74.79608458	         -6.96578468	
          3.84000000	        -59.49505751	         13.90052838	        -15.05923724	          2.68939137	         98.58362392	        -22.41816747	         49.57038066	         74.67924952	         -6.87947033	
          3.85000000	        -59.49981544	         13.97890270	        -15.11733594	          2.73141966	         98.53681488	        -22.44915679	         49.72718956	         74.56483969	         -6.78099830	
          3.86000000	        -59.49637376	         14.06540494	        -15.17246365	          2.77699551	         98.47783456	        -22.47615969	         49.89267328	         74.45506988	         -6.67621005	
          3.87000000	        -59.48189151	         14.15666429	        -15.21953735	          2.82403554	         98.40626365	        -22.49572382	         50.06417311	         74.35246835	         -6.57322295	
          3.88000000	        -59.45373938	         14.24905902	        -15.25363608	          2.87031575	         98.32183433	        -22.50455908	         50.23927511	         74.25945327	         -6.48073140	
          3.89000000	        -59.41003173	         14.33926761	        -15.27091594	          2.91381637	         98.22453836	        -22.50016296	         50.41639216	         74.17793677	         -6.40638077	
          3.90000000	        -59.34997533	         14.42475578	        -15.26924813	          2.95302683	         98.11469550	        -22.48124620	         50.59510551	         74.10903928	         -6.35553859	
          3.91000000	        -59.27397464	         14.50413546	        -15.24848275	          2.98717010	         97.99296048	        -22.44789087	         50.77620320	         74.05296330	         -6.33064079	
          3.92000000	        -59.18348737	         14.57734723	        -15.21031977	          3.01631440	         97.86025875	        -22.40143121	         50.96143019	         74.00904253	         -6.33114154	
          3.93000000	        -59.08066509	         14.64562643	        -15.15782736	          3.04134619	         97.71765306	        -22.34409241	         51.15302613	         73.97595589	         -6.35397704	
          3.94000000	        -58.96784581	         14.71123047	        -15.09469284	          3.06378988	         97.56615752	        -22.27845498	         51.35316471	         73.95206813	         -6.39439083	
          3.95000000	        -58.84699521	         14.77694823	        -15.02434092	          3.08548839	         97.40653213	        -22.20684511	         51.56342435	         73.93582740	         -6.44694044	
          3.96000000	        -58.71921629	         14.84547958	        -14.94910246	          3.10820195	         97.23910308	        -22.13077904	         51.78441552	         73.92612332	         -6.50648609	
